<?xml version="1.0" encoding="UTF-8"?>
<svg version="1.1" xmlns="http://www.w3.org/2000/svg" width="1414" height="982">
<path d="M0 0 C466.62 0 933.24 0 1414 0 C1414 324.06 1414 648.12 1414 982 C947.38 982 480.76 982 0 982 C0 657.94 0 333.88 0 0 Z " fill="#FEFEFE" transform="translate(0,0)"/>
<path d="M0 0 C1.41112312 -0.01455482 1.41112312 -0.01455482 2.85075378 -0.02940369 C5.92398362 -0.05442582 8.99699066 -0.06696299 12.0703125 -0.07421875 C13.12411102 -0.07683716 14.17790955 -0.07945557 15.26364136 -0.08215332 C30.66875284 -0.08622348 45.92219907 0.52151978 61.2578125 1.98828125 C62.11397156 2.06678314 62.97013062 2.14528503 63.85223389 2.22616577 C73.54110775 3.13760915 82.66319765 4.65508107 92.01782227 7.34667969 C95.73732698 8.39037014 99.30304526 9.01449561 103.1328125 9.48828125 C104.29683594 9.6378125 105.46085937 9.78734375 106.66015625 9.94140625 C107.91505859 10.08835938 107.91505859 10.08835938 109.1953125 10.23828125 C109.1953125 10.89828125 109.1953125 11.55828125 109.1953125 12.23828125 C110.30003906 12.34527344 111.40476562 12.45226562 112.54296875 12.5625 C117.72350872 13.21334452 122.62803691 14.5966179 127.6328125 16.05078125 C128.52291016 16.29892578 129.41300781 16.54707031 130.33007812 16.80273438 C135.46854745 18.27783916 140.21858581 20.08355079 145.06030273 22.34008789 C147.74692295 23.47034241 150.43576095 24.08262375 153.27050781 24.72363281 C156.56146081 25.60355784 159.5268659 27.10747429 162.5703125 28.61328125 C168.35996724 31.40105408 174.1824187 33.9604556 180.1953125 36.23828125 C180.1953125 36.89828125 180.1953125 37.55828125 180.1953125 38.23828125 C182.1753125 38.56828125 184.1553125 38.89828125 186.1953125 39.23828125 C186.1953125 39.89828125 186.1953125 40.55828125 186.1953125 41.23828125 C188.1753125 41.56828125 190.1553125 41.89828125 192.1953125 42.23828125 C192.1953125 42.89828125 192.1953125 43.55828125 192.1953125 44.23828125 C192.9171875 44.34140625 193.6390625 44.44453125 194.3828125 44.55078125 C197.47324671 45.30622072 199.61275091 46.3935944 202.1953125 48.23828125 C202.1953125 48.89828125 202.1953125 49.55828125 202.1953125 50.23828125 C203.0821875 50.34140625 203.9690625 50.44453125 204.8828125 50.55078125 C208.277988 51.25544032 210.41473348 52.19373785 213.1953125 54.23828125 C213.1953125 54.89828125 213.1953125 55.55828125 213.1953125 56.23828125 C213.91203125 56.33882812 214.62875 56.439375 215.3671875 56.54296875 C223.17628146 58.46288412 229.98024255 64.75232421 236.15625 69.6953125 C238.40339254 71.39573645 240.78882548 72.6919265 243.265625 74.02734375 C246.86762843 76.28771028 250.02640699 79.13746231 253.28125 81.86328125 C256.96129758 84.86256936 260.79678498 87.59871277 264.6875 90.31640625 C267.45011586 92.43355112 269.77670835 94.73539241 272.1953125 97.23828125 C273.22244514 98.28013981 274.2511736 99.32042682 275.28125 100.359375 C275.8162915 100.89949219 276.35133301 101.43960938 276.90258789 101.99609375 C282.89397779 108.06639046 282.89397779 108.06639046 289.2578125 113.73828125 C291.9927682 116.06590312 294.14965578 118.29253557 296.1953125 121.23828125 C296.1953125 121.89828125 296.1953125 122.55828125 296.1953125 123.23828125 C296.7521875 123.46515625 297.3090625 123.69203125 297.8828125 123.92578125 C311.76785042 131.80647845 327.37503711 155.33230283 335.1953125 169.23828125 C335.1953125 170.22828125 335.1953125 171.21828125 335.1953125 172.23828125 C335.8553125 172.23828125 336.5153125 172.23828125 337.1953125 172.23828125 C341.05462049 177.02563398 344.04439742 182.56735075 346.9609375 187.96484375 C347.82437572 189.55510022 348.71191432 191.13239979 349.6171875 192.69921875 C350.07609375 193.49585938 350.535 194.2925 351.0078125 195.11328125 C351.42675781 195.83257812 351.84570312 196.551875 352.27734375 197.29296875 C353.1953125 199.23828125 353.1953125 199.23828125 353.1953125 202.23828125 C353.8553125 202.23828125 354.5153125 202.23828125 355.1953125 202.23828125 C355.1953125 202.89828125 355.1953125 203.55828125 355.1953125 204.23828125 C355.8553125 204.23828125 356.5153125 204.23828125 357.1953125 204.23828125 C357.8140625 205.69234375 357.8140625 205.69234375 358.4453125 207.17578125 C360.04228058 210.9198691 361.72614044 214.62184317 363.42578125 218.3203125 C364.1953125 220.23828125 364.1953125 220.23828125 364.1953125 222.23828125 C364.8553125 222.23828125 365.5153125 222.23828125 366.1953125 222.23828125 C372.96126995 239.38721742 372.96126995 239.38721742 374.1953125 248.23828125 C374.8553125 248.23828125 375.5153125 248.23828125 376.1953125 248.23828125 C377.96938659 251.27955112 378.70255825 254.30989406 379.5 257.71484375 C380.37138423 260.87728314 381.49822459 263.91062662 382.6328125 266.98828125 C384.65090174 272.50834887 386.23928237 277.98121382 387.51953125 283.71484375 C388.07997645 286.19224374 388.07997645 286.19224374 389.18652344 288.08666992 C390.32031365 290.50489188 390.67394169 292.54203804 391.01171875 295.1875 C391.13611328 296.11755859 391.26050781 297.04761719 391.38867188 298.00585938 C391.57139648 299.4512207 391.57139648 299.4512207 391.7578125 300.92578125 C392.00540383 302.84683606 392.2565127 304.76744194 392.51171875 306.6875 C392.61943604 307.53658936 392.72715332 308.38567871 392.83813477 309.26049805 C393.00034708 311.23337693 393.00034708 311.23337693 394.1953125 312.23828125 C394.74383991 314.88254109 395.23934386 317.51530823 395.6953125 320.17578125 C395.8298584 320.94470703 395.9644043 321.71363281 396.10302734 322.50585938 C396.9582163 327.50866215 397.62497321 332.4849274 397.984375 337.55078125 C398.02412631 339.27174193 398.02412631 339.27174193 399.1953125 340.23828125 C399.44217086 342.58061499 399.61808647 344.89212795 399.74609375 347.2421875 C399.80885246 348.3650692 399.80885246 348.3650692 399.87287903 349.51063538 C400.41950804 360.39135463 400.39087708 371.28411322 400.3828125 382.17578125 C400.38320526 383.30092133 400.38359802 384.4260614 400.38400269 385.58529663 C400.36836752 422.9437021 400.36836752 422.9437021 397.1953125 440.23828125 C396.5353125 440.23828125 395.8753125 440.23828125 395.1953125 440.23828125 C395.14632812 441.14449219 395.09734375 442.05070312 395.046875 442.984375 C394.66540744 449.19966542 394.19126537 455.15176724 392.671875 461.1953125 C391.89793014 464.51312532 391.56449328 467.85412406 391.1953125 471.23828125 C390.5353125 471.23828125 389.8753125 471.23828125 389.1953125 471.23828125 C389.18113281 471.85832031 389.16695312 472.47835938 389.15234375 473.1171875 C388.8051793 479.5631868 387.43222848 485.12235914 385.27026367 491.19775391 C383.52154398 496.13611365 382.13717483 501.10708312 380.8203125 506.17578125 C379.00446202 513.03991705 376.61953478 519.42165027 373.60595703 525.84936523 C371.69119899 529.9425547 370.33038235 533.8825206 369.1953125 538.23828125 C368.5353125 538.23828125 367.8753125 538.23828125 367.1953125 538.23828125 C367.0715625 538.77453125 366.9478125 539.31078125 366.8203125 539.86328125 C366.07325234 542.70210985 365.14227886 545.46051327 364.1953125 548.23828125 C363.5353125 548.23828125 362.8753125 548.23828125 362.1953125 548.23828125 C362.0921875 549.10453125 361.9890625 549.97078125 361.8828125 550.86328125 C361.16132836 554.40511248 359.92407989 557.08140167 358.1953125 560.23828125 C357.5353125 560.23828125 356.8753125 560.23828125 356.1953125 560.23828125 C355.8653125 562.21828125 355.5353125 564.19828125 355.1953125 566.23828125 C354.5353125 566.23828125 353.8753125 566.23828125 353.1953125 566.23828125 C353.040625 567.32109375 353.040625 567.32109375 352.8828125 568.42578125 C352.12737303 571.51621546 351.03999935 573.65571966 349.1953125 576.23828125 C348.5353125 576.23828125 347.8753125 576.23828125 347.1953125 576.23828125 C347.12183594 576.90214844 347.04835938 577.56601562 346.97265625 578.25 C345.91767388 582.30558548 343.93163239 585.49578628 341.7578125 589.05078125 C341.14583008 590.09008789 341.14583008 590.09008789 340.52148438 591.15039062 C339.47398203 592.88483578 338.34099221 594.56706039 337.1953125 596.23828125 C336.5353125 596.23828125 335.8753125 596.23828125 335.1953125 596.23828125 C334.87046875 597.24375 334.87046875 597.24375 334.5390625 598.26953125 C332.76336013 602.19259463 330.31447651 605.33884507 327.6953125 608.73828125 C327.16357422 609.43735596 326.63183594 610.13643066 326.08398438 610.85668945 C324.46015045 612.98833437 322.82842557 615.11374056 321.1953125 617.23828125 C320.23672318 618.49199182 319.27837565 619.7458873 318.3203125 621 C315.95626873 624.08801073 313.5844567 627.16961596 311.1953125 630.23828125 C310.48375 631.18316406 309.7721875 632.12804687 309.0390625 633.1015625 C308.430625 633.80667969 307.8221875 634.51179687 307.1953125 635.23828125 C306.5353125 635.23828125 305.8753125 635.23828125 305.1953125 635.23828125 C304.80859375 636.10066406 304.80859375 636.10066406 304.4140625 636.98046875 C299.92697943 645.29307777 291.3467904 652.21044657 284.7578125 658.86328125 C283.54931641 660.09135498 283.54931641 660.09135498 282.31640625 661.34423828 C281.55585937 662.10591309 280.7953125 662.86758789 280.01171875 663.65234375 C279.32537354 664.34279785 278.63902832 665.03325195 277.93188477 665.74462891 C276.1953125 667.23828125 276.1953125 667.23828125 274.1953125 667.23828125 C274.1953125 667.89828125 274.1953125 668.55828125 274.1953125 669.23828125 C269.72472426 673.23828125 269.72472426 673.23828125 267.1953125 673.23828125 C267.1953125 673.89828125 267.1953125 674.55828125 267.1953125 675.23828125 C262.72472426 679.23828125 262.72472426 679.23828125 260.1953125 679.23828125 C260.1953125 679.89828125 260.1953125 680.55828125 260.1953125 681.23828125 C258.85351562 682.47167969 258.85351562 682.47167969 256.9765625 683.84765625 C256.29078125 684.35554687 255.605 684.8634375 254.8984375 685.38671875 C254.17140625 685.91523437 253.444375 686.44375 252.6953125 686.98828125 C251.99921875 687.50132812 251.303125 688.014375 250.5859375 688.54296875 C249.1757753 689.58231052 247.76299171 690.61810467 246.34765625 691.65039062 C244.87005017 692.74049384 243.40440278 693.84693786 241.94921875 694.96679688 C241.23636719 695.51529297 240.52351562 696.06378906 239.7890625 696.62890625 C238.82516602 697.37962402 238.82516602 697.37962402 237.84179688 698.14550781 C236.1953125 699.23828125 236.1953125 699.23828125 234.1953125 699.23828125 C234.1953125 699.89828125 234.1953125 700.55828125 234.1953125 701.23828125 C231.7109375 702.9296875 231.7109375 702.9296875 228.4453125 704.80078125 C227.37796875 705.42082031 226.310625 706.04085937 225.2109375 706.6796875 C222.7773236 707.937475 220.8633139 708.76555285 218.1953125 709.23828125 C218.1953125 709.89828125 218.1953125 710.55828125 218.1953125 711.23828125 C216.5453125 711.56828125 214.8953125 711.89828125 213.1953125 712.23828125 C213.1953125 712.89828125 213.1953125 713.55828125 213.1953125 714.23828125 C210.51700864 716.7023208 207.58018518 717.99516706 204.23828125 719.36328125 C199.18460304 721.52776293 194.31339177 724.13724005 189.4375 726.671875 C188.55320312 727.12691406 187.66890625 727.58195313 186.7578125 728.05078125 C185.95472656 728.46972656 185.15164063 728.88867188 184.32421875 729.3203125 C182.1953125 730.23828125 182.1953125 730.23828125 179.1953125 730.23828125 C179.1953125 730.89828125 179.1953125 731.55828125 179.1953125 732.23828125 C177.2153125 732.56828125 175.2353125 732.89828125 173.1953125 733.23828125 C173.1953125 733.89828125 173.1953125 734.55828125 173.1953125 735.23828125 C172.050625 735.66109375 170.9059375 736.08390625 169.7265625 736.51953125 C165.34172543 738.16384515 161.01698119 739.93561799 156.6953125 741.73828125 C147.09409969 745.74315872 137.56807966 749.5766922 127.36328125 751.73046875 C124.99674296 752.24325139 124.99674296 752.24325139 122.0078125 753.36328125 C118.93462331 754.31938455 116.39468559 754.39063235 113.1953125 754.23828125 C113.1953125 754.89828125 113.1953125 755.55828125 113.1953125 756.23828125 C108.71744899 757.22681545 104.2374665 758.20490613 99.75537109 759.17407227 C98.2362175 759.50400892 96.71764094 759.83661581 95.19970703 760.17211914 C86.89919567 762.0048063 78.82917609 763.60557586 70.31152344 764.04711914 C68.21097937 764.00907311 68.21097937 764.00907311 67.1953125 765.23828125 C62.45086582 765.96577221 57.66155378 766.36094882 52.8828125 766.80078125 C52.1465564 766.86898071 51.41030029 766.93718018 50.6517334 767.00744629 C37.08276091 768.22343414 23.56385954 768.51693975 9.9453125 768.48828125 C9.01286713 768.48732452 8.08042175 768.4863678 7.11972046 768.48538208 C-8.46335599 768.44811884 -23.66799061 767.6419334 -39.05053711 765.08154297 C-41.15941936 764.73126672 -43.26993474 764.39241606 -45.38085938 764.0546875 C-55.66480108 762.37816767 -55.66480108 762.37816767 -56.8046875 761.23828125 C-59.28172381 760.78846361 -61.75585762 760.37986589 -64.2421875 759.98828125 C-72.96194627 758.54058848 -81.36438878 756.31519996 -89.83496094 753.81591797 C-91.71350789 753.26502034 -93.59882584 752.73737002 -95.484375 752.2109375 C-98.48361568 751.33233641 -101.38113885 750.33891133 -104.3046875 749.23828125 C-108.44045441 747.71009265 -112.55083735 746.39036567 -116.8046875 745.23828125 C-117.7946875 744.90828125 -118.7846875 744.57828125 -119.8046875 744.23828125 C-119.8046875 743.57828125 -119.8046875 742.91828125 -119.8046875 742.23828125 C-120.35253906 742.16351562 -120.90039062 742.08875 -121.46484375 742.01171875 C-135.33206236 739.71178981 -147.67457836 733.01737771 -159.8046875 726.23828125 C-159.8046875 725.57828125 -159.8046875 724.91828125 -159.8046875 724.23828125 C-161.0421875 724.14546875 -161.0421875 724.14546875 -162.3046875 724.05078125 C-166.11248874 723.16682739 -168.43651012 721.77011176 -171.65234375 719.640625 C-176.49123998 716.48787773 -181.62804113 713.7916271 -186.8046875 711.23828125 C-186.8046875 710.57828125 -186.8046875 709.91828125 -186.8046875 709.23828125 C-187.7328125 708.94953125 -188.6609375 708.66078125 -189.6171875 708.36328125 C-192.8046875 707.23828125 -192.8046875 707.23828125 -195.8046875 705.23828125 C-195.8046875 704.57828125 -195.8046875 703.91828125 -195.8046875 703.23828125 C-196.33191406 703.16480469 -196.85914063 703.09132813 -197.40234375 703.015625 C-200.79131339 701.91903157 -203.40495128 699.89013985 -206.2421875 697.80078125 C-207.16427002 697.13079102 -207.16427002 697.13079102 -208.10498047 696.44726562 C-220.50013748 687.39451587 -232.96984819 678.13938869 -243.8046875 667.23828125 C-245.36195874 665.79198971 -246.9358562 664.36527818 -248.51098633 662.93847656 C-253.36445643 658.53875443 -257.98553206 654.13454258 -262.1953125 649.1015625 C-263.99347929 647.01970434 -265.90567727 645.10410803 -267.8671875 643.17578125 C-273.32019794 637.78569016 -278.07445604 631.97273982 -282.7421875 625.8984375 C-284.33036155 623.85005392 -285.93431988 621.81956751 -287.5546875 619.796875 C-288.2813562 618.8853064 -288.2813562 618.8853064 -289.02270508 617.95532227 C-289.97718792 616.75884893 -290.93516863 615.56515464 -291.8972168 614.37475586 C-294.12886662 611.56722232 -296.13548371 608.78595301 -297.88671875 605.65234375 C-299.67340161 602.47197548 -301.61346806 599.64849457 -303.8046875 596.73828125 C-311.8046875 585.87260961 -311.8046875 585.87260961 -311.8046875 581.23828125 C-312.4646875 581.23828125 -313.1246875 581.23828125 -313.8046875 581.23828125 C-316.8046875 576.85366587 -316.8046875 576.85366587 -316.8046875 574.23828125 C-317.4646875 574.23828125 -318.1246875 574.23828125 -318.8046875 574.23828125 C-323.21243237 564.82825847 -323.21243237 564.82825847 -323.8046875 560.23828125 C-324.4646875 560.23828125 -325.1246875 560.23828125 -325.8046875 560.23828125 C-326.2996875 557.26828125 -326.2996875 557.26828125 -326.8046875 554.23828125 C-327.4646875 554.23828125 -328.1246875 554.23828125 -328.8046875 554.23828125 C-329.2996875 551.26828125 -329.2996875 551.26828125 -329.8046875 548.23828125 C-330.4646875 548.23828125 -331.1246875 548.23828125 -331.8046875 548.23828125 C-339.12890625 530.66015625 -339.12890625 530.66015625 -340.46899414 527.43261719 C-341.34283934 525.34279987 -342.22705032 523.25727925 -343.12280273 521.17675781 C-346.027003 514.38611111 -348.40550717 507.57063588 -350.4921875 500.48828125 C-350.93401367 499.02455078 -350.93401367 499.02455078 -351.38476562 497.53125 C-352.6451326 493.32247398 -353.8587803 489.11955624 -354.88671875 484.84765625 C-355.6834109 481.36230673 -355.6834109 481.36230673 -356.86328125 478.66015625 C-358.04271564 475.62592671 -358.43340715 472.71064954 -358.8671875 469.48828125 C-359.0879762 465.5421238 -359.0879762 465.5421238 -360.8046875 462.23828125 C-361.35361393 458.6218248 -361.7713727 454.99498951 -362.20703125 451.36328125 C-362.58483083 448.49324543 -363.1185319 445.70709237 -363.76953125 442.88671875 C-368.11493538 423.85510234 -368.08252397 404.59255935 -368.0546875 385.17578125 C-368.05382141 384.00549377 -368.05295532 382.8352063 -368.05206299 381.62945557 C-368.04566579 378.27890642 -368.02952522 374.92860717 -368.0078125 371.578125 C-368.0034317 370.55012283 -367.9990509 369.52212067 -367.99453735 368.46296692 C-367.98506073 367.52506821 -367.97558411 366.58716949 -367.96582031 365.62084961 C-367.95899231 364.79548203 -367.95216431 363.97011444 -367.94512939 363.11973572 C-367.8046875 361.23828125 -367.8046875 361.23828125 -366.8046875 360.23828125 C-366.57536464 358.09598741 -366.40914195 355.94687982 -366.26953125 353.796875 C-366.18251953 352.49169922 -366.09550781 351.18652344 -366.00585938 349.84179688 C-365.91786959 348.45313128 -365.82998028 347.06445931 -365.7421875 345.67578125 C-365.6508134 344.28317532 -365.55902197 342.89059671 -365.46679688 341.49804688 C-365.24197399 338.07837247 -365.02146691 334.65847346 -364.8046875 331.23828125 C-364.1446875 331.23828125 -363.4846875 331.23828125 -362.8046875 331.23828125 C-362.81628906 330.45324219 -362.82789063 329.66820312 -362.83984375 328.859375 C-362.88832447 323.2148337 -362.91391992 317.78444337 -361.8046875 312.23828125 C-361.4746875 311.90828125 -361.1446875 311.57828125 -360.8046875 311.23828125 C-360.33487039 308.30267244 -359.904551 305.36948231 -359.4921875 302.42578125 C-358.48343176 295.59581031 -357.09465879 289.28935924 -354.703125 282.7890625 C-353.87938933 280.45036948 -353.3314268 278.23146817 -352.8671875 275.80078125 C-351.85149597 270.794873 -349.92277165 266.20039443 -348.04296875 261.46484375 C-345.88392577 255.83907246 -344.23708976 250.08725715 -342.8046875 244.23828125 C-342.1446875 244.23828125 -341.4846875 244.23828125 -340.8046875 244.23828125 C-340.711875 242.84609375 -340.711875 242.84609375 -340.6171875 241.42578125 C-339.10559524 231.17146622 -332.3459571 221.22066267 -327.70654297 212.03466797 C-326.57393082 209.77864192 -325.47309368 207.50749359 -324.3671875 205.23828125 C-319.38296781 195.30340564 -314.00989486 185.5522562 -307.45703125 176.5625 C-305.76410501 174.18119713 -304.25737365 171.73588235 -302.7421875 169.23828125 C-290.1737443 149.29823428 -273.57789174 130.70465858 -256.8046875 114.23828125 C-254.13743731 111.58432301 -251.48671843 108.91602403 -248.859375 106.22265625 C-242.17684592 99.40278621 -235.32200402 93.14402925 -227.8046875 87.23828125 C-226.62736151 86.28445563 -225.45167167 85.3286081 -224.27734375 84.37109375 C-212.82692601 75.06212648 -201.09252225 66.30546585 -188.3671875 58.80078125 C-185.1911681 56.86418406 -182.14459222 54.75691251 -179.0859375 52.640625 C-176.72576047 51.18976275 -174.37193582 50.26518058 -171.8046875 49.23828125 C-170.48904151 48.37805118 -169.19753124 47.48002416 -167.9296875 46.55078125 C-160.38633821 41.39552746 -151.751491 37.59495007 -143.1796875 34.48828125 C-139.88396221 33.38818075 -139.88396221 33.38818075 -137.4296875 31.80078125 C-134.20868897 29.88352022 -130.87759446 28.61885949 -127.38671875 27.26953125 C-125.11635328 26.36275896 -122.94330445 25.3607366 -120.7421875 24.30078125 C-111.03477335 19.92123739 -100.26361232 17.59974838 -90.0078125 14.8515625 C-88.2776532 14.36994014 -86.56731679 13.81704867 -84.8671875 13.23828125 C-74.27200211 9.77862888 -62.98656363 7.21332826 -51.94921875 5.71484375 C-48.94646458 5.57778147 -48.94646458 5.57778147 -47.8046875 4.23828125 C-45.68448379 3.94966911 -43.55594474 3.72192751 -41.42578125 3.51953125 C-40.78028824 3.45672974 -40.13479523 3.39392822 -39.46974182 3.32922363 C-37.39426857 3.12805428 -35.31828084 2.93293753 -33.2421875 2.73828125 C-31.19121326 2.54248996 -29.14036889 2.34542315 -27.08961487 2.14733887 C-25.21027233 1.96637084 -23.3306076 1.78875808 -21.45092773 1.61132812 C-18.94916086 1.35537233 -16.45194884 1.05175882 -13.96069336 0.70825195 C-9.30897649 0.11857453 -4.6845449 0.04050132 0 0 Z " fill="#E1AF63" transform="translate(693.8046875,133.76171875)"/>
<path d="M0 0 C1.01647513 -0.00155999 2.03295026 -0.00311998 3.08022767 -0.00472724 C6.45464875 -0.00868629 9.8290241 -0.00556752 13.20344543 -0.00241089 C15.63540676 -0.00376716 18.06736788 -0.00554837 20.49932861 -0.00772095 C26.39940121 -0.01179634 32.29946212 -0.01121531 38.19953438 -0.00830831 C42.99611513 -0.00604344 47.79269232 -0.00574644 52.58927345 -0.00683212 C53.61600758 -0.00706197 53.61600758 -0.00706197 54.6634838 -0.00729647 C56.05427708 -0.00761621 57.44507035 -0.00794042 58.83586363 -0.00826906 C71.85247502 -0.01111515 84.86907936 -0.00785016 97.88568959 -0.00246869 C109.04369507 0.00200157 120.20169014 0.0012199 131.35969543 -0.00338745 C144.33662773 -0.00874341 157.31355386 -0.0108437 170.29048711 -0.00777519 C171.67504553 -0.00745666 173.05960395 -0.00714228 174.44416237 -0.00683212 C175.46585555 -0.00660071 175.46585555 -0.00660071 176.50818899 -0.00636462 C181.29805511 -0.00550276 186.08791731 -0.00695516 190.87778282 -0.00931168 C197.3267948 -0.01241494 203.77579178 -0.01019408 210.22480202 -0.00441742 C212.59029737 -0.003096 214.95579437 -0.00347346 217.32128906 -0.00568008 C220.55186146 -0.00841573 223.78237105 -0.00498091 227.01293945 0 C227.94708858 -0.00223072 228.88123771 -0.00446144 229.84369439 -0.00675976 C242.86223751 0.03212687 252.67423003 1.96395935 262.30818176 11.22463989 C268.92779889 20.79346387 268.88142446 31.0779614 268.79701233 42.24275208 C268.79875888 43.96816521 268.80226532 45.69357729 268.80736899 47.41898376 C268.81627642 52.13732309 268.8003638 56.85529646 268.78025675 61.57358921 C268.7629349 66.67023915 268.7688318 71.76686953 268.77186584 76.86354065 C268.77396022 85.6862493 268.76144192 94.50883935 268.73891449 103.33151817 C268.70636517 116.0875103 268.69598446 128.84344525 268.69096252 141.59947441 C268.68221448 162.2967463 268.65561219 182.99395502 268.61775208 203.69119263 C268.58101931 223.79307744 268.55271373 243.89494508 268.53572083 263.99685669 C268.53466993 265.23655689 268.53361904 266.47625709 268.5325363 267.75352397 C268.52731604 273.97292052 268.52226123 280.1923172 268.51728868 286.41171396 C268.47584193 337.98351417 268.40540683 389.55524582 268.31599426 441.12698364 C267.65599426 441.12698364 266.99599426 441.12698364 266.31599426 441.12698364 C266.25411926 442.82854614 266.25411926 442.82854614 266.19099426 444.56448364 C265.42650195 450.12175471 263.17624572 454.08424758 259.31599426 458.12698364 C252.61699552 463.04734004 246.28494016 467.24184636 237.77280903 467.26120472 C236.86122888 467.26566256 235.94964873 467.27012041 235.01044494 467.27471334 C234.01269788 467.27452897 233.01495082 467.27434461 231.98696899 467.27415466 C230.39265683 467.2796697 230.39265683 467.2796697 228.76613635 467.28529614 C225.19266291 467.2963387 221.61921854 467.3001778 218.04573059 467.3039856 C215.48834643 467.31024977 212.93096318 467.31689653 210.37358093 467.32389832 C202.69104726 467.34312794 195.0085187 467.35372654 187.3259671 467.36262611 C183.70645327 467.3670115 180.08694089 467.37237763 176.46742821 467.37761497 C164.43270706 467.39462513 152.39798682 467.40911902 140.3632555 467.41636372 C137.24130057 467.41827355 134.11934565 467.42019389 130.99739075 467.42214966 C129.83349926 467.42287527 129.83349926 467.42287527 128.64609482 467.42361554 C116.07822292 467.43191483 103.51044623 467.45725096 90.9426159 467.48973034 C78.03431225 467.52281718 65.12605695 467.54081392 52.21771067 467.54400796 C44.9722269 467.54617149 37.72688199 467.55489712 30.48143959 467.58046913 C23.66474193 467.60447269 16.84829782 467.60799161 10.03156662 467.59770775 C7.53103365 467.59721177 5.03048847 467.60355047 2.52999306 467.61726379 C-0.8869917 467.63495337 -4.30307683 467.62788995 -7.72006226 467.61473083 C-9.19995244 467.6311847 -9.19995244 467.6311847 -10.70973939 467.64797097 C-19.60924791 467.5653794 -26.64171337 464.56875502 -33.68400574 459.12698364 C-41.30877803 451.13027124 -44.80437817 443.14263347 -44.8154335 432.10252762 C-44.81748614 431.40384481 -44.81953877 430.705162 -44.8216536 429.98530698 C-44.8273187 427.63857357 -44.82586696 425.29189895 -44.82444763 422.94515991 C-44.82703154 421.24784043 -44.83004478 419.55052156 -44.83345103 417.85320354 C-44.84152113 413.18442435 -44.84331061 408.51566053 -44.8440485 403.84687519 C-44.84589902 398.81333822 -44.85344632 393.77980922 -44.86018372 388.74627686 C-44.87376729 377.73805634 -44.8797917 366.72983947 -44.88419437 355.72161198 C-44.88695656 348.84909297 -44.89119385 341.97657537 -44.89569855 335.10405731 C-44.90789088 316.07878838 -44.9181905 297.05352058 -44.92157364 278.02824783 C-44.9217932 276.81053166 -44.92201277 275.59281549 -44.92223899 274.33819883 C-44.92245727 273.11755989 -44.92267555 271.89692095 -44.92290044 270.63929296 C-44.92334391 268.16578881 -44.92379047 265.69228466 -44.92424011 263.21878052 C-44.92446154 261.99183553 -44.92468297 260.76489055 -44.92491111 259.50076541 C-44.92885984 239.61611107 -44.94631633 219.73149336 -44.96959963 199.84685317 C-44.99330725 179.43523596 -45.00577521 159.02363715 -45.00694156 138.61200595 C-45.00785861 127.15013303 -45.01361862 115.68830784 -45.03176117 104.22644806 C-45.04715412 94.46727318 -45.05228734 84.70816078 -45.04402307 74.94897607 C-45.04011383 69.96967407 -45.04105963 64.99049794 -45.05508041 60.0112114 C-45.06780259 55.45142421 -45.06663659 50.89185772 -45.0544897 46.33207092 C-45.0525298 44.68402059 -45.05562467 43.03595473 -45.06433406 41.38792625 C-45.12626211 28.87576883 -43.73966737 19.24716157 -35.68400574 9.12698364 C-31.39132281 5.12698364 -31.39132281 5.12698364 -28.68400574 5.12698364 C-28.68400574 4.46698364 -28.68400574 3.80698364 -28.68400574 3.12698364 C-19.38477848 0.02724122 -9.72367078 -0.0233874 0 0 Z " fill="#50A0D6" transform="translate(597.6840057373047,284.8730163574219)"/>
<path d="M0 0 C1.01647513 -0.00155999 2.03295026 -0.00311998 3.08022767 -0.00472724 C6.45464875 -0.00868629 9.8290241 -0.00556752 13.20344543 -0.00241089 C15.63540676 -0.00376716 18.06736788 -0.00554837 20.49932861 -0.00772095 C26.39940121 -0.01179634 32.29946212 -0.01121531 38.19953438 -0.00830831 C42.99611513 -0.00604344 47.79269232 -0.00574644 52.58927345 -0.00683212 C53.61600758 -0.00706197 53.61600758 -0.00706197 54.6634838 -0.00729647 C56.05427708 -0.00761621 57.44507035 -0.00794042 58.83586363 -0.00826906 C71.85247502 -0.01111515 84.86907936 -0.00785016 97.88568959 -0.00246869 C109.04369507 0.00200157 120.20169014 0.0012199 131.35969543 -0.00338745 C144.33662773 -0.00874341 157.31355386 -0.0108437 170.29048711 -0.00777519 C171.67504553 -0.00745666 173.05960395 -0.00714228 174.44416237 -0.00683212 C175.46585555 -0.00660071 175.46585555 -0.00660071 176.50818899 -0.00636462 C181.29805511 -0.00550276 186.08791731 -0.00695516 190.87778282 -0.00931168 C197.3267948 -0.01241494 203.77579178 -0.01019408 210.22480202 -0.00441742 C212.59029737 -0.003096 214.95579437 -0.00347346 217.32128906 -0.00568008 C220.55186146 -0.00841573 223.78237105 -0.00498091 227.01293945 0 C227.94708858 -0.00223072 228.88123771 -0.00446144 229.84369439 -0.00675976 C242.86223751 0.03212687 252.67423003 1.96395935 262.30818176 11.22463989 C268.92779889 20.79346387 268.88142446 31.0779614 268.79701233 42.24275208 C268.79875888 43.96816521 268.80226532 45.69357729 268.80736899 47.41898376 C268.81627642 52.13732309 268.8003638 56.85529646 268.78025675 61.57358921 C268.7629349 66.67023915 268.7688318 71.76686953 268.77186584 76.86354065 C268.77396022 85.6862493 268.76144192 94.50883935 268.73891449 103.33151817 C268.70636517 116.0875103 268.69598446 128.84344525 268.69096252 141.59947441 C268.68221448 162.2967463 268.65561219 182.99395502 268.61775208 203.69119263 C268.58101931 223.79307744 268.55271373 243.89494508 268.53572083 263.99685669 C268.53466993 265.23655689 268.53361904 266.47625709 268.5325363 267.75352397 C268.52731604 273.97292052 268.52226123 280.1923172 268.51728868 286.41171396 C268.47584193 337.98351417 268.40540683 389.55524582 268.31599426 441.12698364 C267.65599426 441.12698364 266.99599426 441.12698364 266.31599426 441.12698364 C266.25411926 442.82854614 266.25411926 442.82854614 266.19099426 444.56448364 C265.42650195 450.12175471 263.17624572 454.08424758 259.31599426 458.12698364 C252.61699552 463.04734004 246.28494016 467.24184636 237.77280903 467.26120472 C236.86122888 467.26566256 235.94964873 467.27012041 235.01044494 467.27471334 C234.01269788 467.27452897 233.01495082 467.27434461 231.98696899 467.27415466 C230.39265683 467.2796697 230.39265683 467.2796697 228.76613635 467.28529614 C225.19266291 467.2963387 221.61921854 467.3001778 218.04573059 467.3039856 C215.48834643 467.31024977 212.93096318 467.31689653 210.37358093 467.32389832 C202.69104726 467.34312794 195.0085187 467.35372654 187.3259671 467.36262611 C183.70645327 467.3670115 180.08694089 467.37237763 176.46742821 467.37761497 C164.43270706 467.39462513 152.39798682 467.40911902 140.3632555 467.41636372 C137.24130057 467.41827355 134.11934565 467.42019389 130.99739075 467.42214966 C129.83349926 467.42287527 129.83349926 467.42287527 128.64609482 467.42361554 C116.07822292 467.43191483 103.51044623 467.45725096 90.9426159 467.48973034 C78.03431225 467.52281718 65.12605695 467.54081392 52.21771067 467.54400796 C44.9722269 467.54617149 37.72688199 467.55489712 30.48143959 467.58046913 C23.66474193 467.60447269 16.84829782 467.60799161 10.03156662 467.59770775 C7.53103365 467.59721177 5.03048847 467.60355047 2.52999306 467.61726379 C-0.8869917 467.63495337 -4.30307683 467.62788995 -7.72006226 467.61473083 C-9.19995244 467.6311847 -9.19995244 467.6311847 -10.70973939 467.64797097 C-19.60924791 467.5653794 -26.64171337 464.56875502 -33.68400574 459.12698364 C-41.30877803 451.13027124 -44.80437817 443.14263347 -44.8154335 432.10252762 C-44.81748614 431.40384481 -44.81953877 430.705162 -44.8216536 429.98530698 C-44.8273187 427.63857357 -44.82586696 425.29189895 -44.82444763 422.94515991 C-44.82703154 421.24784043 -44.83004478 419.55052156 -44.83345103 417.85320354 C-44.84152113 413.18442435 -44.84331061 408.51566053 -44.8440485 403.84687519 C-44.84589902 398.81333822 -44.85344632 393.77980922 -44.86018372 388.74627686 C-44.87376729 377.73805634 -44.8797917 366.72983947 -44.88419437 355.72161198 C-44.88695656 348.84909297 -44.89119385 341.97657537 -44.89569855 335.10405731 C-44.90789088 316.07878838 -44.9181905 297.05352058 -44.92157364 278.02824783 C-44.9217932 276.81053166 -44.92201277 275.59281549 -44.92223899 274.33819883 C-44.92245727 273.11755989 -44.92267555 271.89692095 -44.92290044 270.63929296 C-44.92334391 268.16578881 -44.92379047 265.69228466 -44.92424011 263.21878052 C-44.92446154 261.99183553 -44.92468297 260.76489055 -44.92491111 259.50076541 C-44.92885984 239.61611107 -44.94631633 219.73149336 -44.96959963 199.84685317 C-44.99330725 179.43523596 -45.00577521 159.02363715 -45.00694156 138.61200595 C-45.00785861 127.15013303 -45.01361862 115.68830784 -45.03176117 104.22644806 C-45.04715412 94.46727318 -45.05228734 84.70816078 -45.04402307 74.94897607 C-45.04011383 69.96967407 -45.04105963 64.99049794 -45.05508041 60.0112114 C-45.06780259 55.45142421 -45.06663659 50.89185772 -45.0544897 46.33207092 C-45.0525298 44.68402059 -45.05562467 43.03595473 -45.06433406 41.38792625 C-45.12626211 28.87576883 -43.73966737 19.24716157 -35.68400574 9.12698364 C-31.39132281 5.12698364 -31.39132281 5.12698364 -28.68400574 5.12698364 C-28.68400574 4.46698364 -28.68400574 3.80698364 -28.68400574 3.12698364 C-19.38477848 0.02724122 -9.72367078 -0.0233874 0 0 Z M-22.68400574 54.12698364 C-22.68400574 166.98698364 -22.68400574 279.84698364 -22.68400574 396.12698364 C66.41599426 396.12698364 155.51599426 396.12698364 247.31599426 396.12698364 C247.31599426 283.26698364 247.31599426 170.40698364 247.31599426 54.12698364 C158.21599426 54.12698364 69.11599426 54.12698364 -22.68400574 54.12698364 Z " fill="#687887" transform="translate(597.6840057373047,284.8730163574219)"/>
<path d="M0 0 C2.11795536 2.11978223 2.92441439 3.47908052 3.35644531 6.45654297 C3.34709961 7.37580566 3.33775391 8.29506836 3.328125 9.2421875 C3.32361328 10.29494873 3.31910156 11.34770996 3.31445312 12.43237305 C3.29318359 13.56843994 3.27191406 14.70450684 3.25 15.875 C3.23904297 17.04780518 3.22808594 18.22061035 3.21679688 19.42895508 C3.04885063 33.29090992 2.54678599 47.14857307 2 61 C4.97 61.33 7.94 61.66 11 62 C11.33 61.34 11.66 60.68 12 60 C12.66 60 13.32 60 14 60 C13.99333817 59.29256149 13.98667633 58.58512299 13.97981262 57.85624695 C13.91971303 51.19081104 13.87403161 44.5254507 13.84456348 37.85980511 C13.82890426 34.43286777 13.80766196 31.00615423 13.77368164 27.5793457 C13.73486486 23.64016392 13.72029284 19.70107291 13.70703125 15.76171875 C13.69154739 14.53039719 13.67606354 13.29907562 13.66011047 12.03044128 C13.65988388 10.88948502 13.65965729 9.74852875 13.65942383 8.57299805 C13.65276199 7.567061 13.64610016 6.56112396 13.63923645 5.52470398 C14 3 14 3 15.30253601 1.17903137 C18.17966246 -0.8193747 20.63093883 -0.42113265 24 0 C26.21592536 2.18260033 26.93874131 3.55087841 27.36076355 6.6449585 C27.35410172 7.64867493 27.34743988 8.65239136 27.34057617 9.68652344 C27.34023628 11.39784454 27.34023628 11.39784454 27.33988953 13.14373779 C27.32440567 14.36989807 27.30892181 15.59605835 27.29296875 16.859375 C27.28872391 18.11888977 27.28447906 19.37840454 27.28010559 20.67608643 C27.26616121 24.01688538 27.23922925 27.35706584 27.20599365 30.69769287 C27.17524839 34.10960558 27.16159079 37.5215823 27.14648438 40.93359375 C27.11339814 47.62256649 27.06318524 54.31124754 27 61 C28.47831221 61.19412181 29.95769316 61.38012131 31.4375 61.5625 C32.26121094 61.66691406 33.08492187 61.77132812 33.93359375 61.87890625 C34.61550781 61.91886719 35.29742188 61.95882812 36 62 C37.73937171 60.26062829 37.15192635 57.86989614 37.17358398 55.50219727 C37.18707382 54.32750381 37.20056366 53.15281036 37.21446228 51.94252014 C37.22490067 50.66340256 37.23533905 49.38428497 37.24609375 48.06640625 C37.27059293 46.0753269 37.29510332 44.08424761 37.32029057 42.09317684 C37.38122204 37.16336164 37.431793 32.23345094 37.47680664 27.3034668 C37.50241039 24.54189709 37.53320632 21.78047623 37.56959534 19.01902771 C37.60356746 16.41158893 37.62941094 13.80402987 37.64659119 11.19642639 C37.66323318 10.01858078 37.67987518 8.84073517 37.69702148 7.62719727 C37.70732895 6.58652603 37.71763641 5.5458548 37.72825623 4.47364807 C38 2 38 2 40 0 C44.33643601 -0.31537716 46.32653229 -0.44897847 50 2 C50.50183105 3.84985352 50.50183105 3.84985352 50.66992188 6.06640625 C50.73429443 6.87352051 50.79866699 7.68063477 50.86499023 8.51220703 C51.07170974 12.32137847 51.21309641 16.12332557 51.28125 19.9375 C51.31898343 21.58984437 51.35674461 23.2421881 51.39453125 24.89453125 C51.44847706 27.46660824 51.50077468 30.03871219 51.55224609 32.61083984 C51.60375072 35.11566562 51.66100393 37.62031159 51.71875 40.125 C51.73232544 40.90093506 51.74590088 41.67687012 51.7598877 42.47631836 C51.52086768 46.03530775 51.52086768 46.03530775 53 49 C53.24388605 51.58940748 53.42716129 54.15433714 53.5625 56.75 C53.6042334 57.5119165 53.6459668 58.27383301 53.68896484 59.05883789 C54.64430607 77.71138787 54.64430607 77.71138787 53 81 C52.34 81 51.68 81 51 81 C50.34 83.31 49.68 85.62 49 88 C48.34 88 47.68 88 47 88 C46.67 89.65 46.34 91.3 46 93 C45.34 93 44.68 93 44 93 C44 93.66 44 94.32 44 95 C43.34 95 42.68 95 42 95 C41.34 97.31 40.68 99.62 40 102 C39.34 102 38.68 102 38 102 C36.2413044 105.80381232 35.74346399 108.79041022 35.734375 112.96875 C35.73050781 114.16105225 35.72664062 115.35335449 35.72265625 116.58178711 C35.73167969 117.87479736 35.74070312 119.16780762 35.75 120.5 C35.75177246 121.16983917 35.75354492 121.83967834 35.75537109 122.52981567 C35.79048057 134.02260015 36.32238054 145.46682389 37 156.9375 C37.62323226 167.54077278 38.22468494 178.12522242 38.3125 188.75 C38.33860352 190.14013306 38.33860352 190.14013306 38.36523438 191.55834961 C38.36002547 198.52851162 37.59553406 205.40446594 32.5 210.5 C27.17006596 212.78425745 21.44064131 213.93727815 15.734375 212.3828125 C13.8125 211.5625 13.8125 211.5625 11 210 C11 209.34 11 208.68 11 208 C9.68 207.67 8.36 207.34 7 207 C7 206.01 7 205.02 7 204 C6.34 204 5.68 204 5 204 C3.83369852 200.50109557 3.87046798 197.75538236 3.8671875 194.0625 C3.86520859 193.0129438 3.86520859 193.0129438 3.8631897 191.94218445 C3.86125667 189.62807951 3.86766822 187.31409297 3.875 185 C3.87588623 184.20389313 3.87677246 183.40778625 3.87768555 182.58755493 C3.89321189 170.61360759 4.12229959 158.6550749 4.5 146.6875 C4.97485848 131.65857115 4.97485848 131.65857115 5.25 116.625 C5.27126953 115.70420654 5.29253906 114.78341309 5.31445312 113.8347168 C5.34065987 108.95511378 4.98152624 106.06429103 2 102 C2 101.34 2 100.68 2 100 C1.34 100 0.68 100 0 100 C-1.52448631 97.0173094 -2.93940067 94.181798 -4 91 C-4.66 91 -5.32 91 -6 91 C-6.4125 90.113125 -6.825 89.22625 -7.25 88.3125 C-8.79547587 85.00594446 -8.79547587 85.00594446 -11.08984375 82.8671875 C-13.79830346 78.80172855 -13.47505638 75.58858212 -13.3125 70.8125 C-13.29558105 69.87414307 -13.27866211 68.93578613 -13.26123047 67.96899414 C-13.21832844 65.84466799 -13.16490254 63.72053789 -13.10302734 61.59667969 C-13.01020759 58.35634659 -12.93883525 55.116585 -12.87507629 51.87561035 C-12.60570567 38.4271316 -12.28281476 24.96846073 -11.125 11.5625 C-11.05877441 10.71743896 -10.99254883 9.87237793 -10.92431641 9.00170898 C-10.37752813 3.485443 -10.37752813 3.485443 -8.67529297 1.29663086 C-5.85847773 -0.88350696 -3.40928576 -0.42616072 0 0 Z " fill="#E8EEF2" transform="translate(657,404)"/>
<path d="M0 0 C2.46939909 2.46939909 2.25608476 3.17089858 2.2784729 6.57069397 C2.28963701 7.53639942 2.30080112 8.50210487 2.31230354 9.49707413 C2.3144631 10.56288586 2.31662266 11.62869759 2.31884766 12.72680664 C2.32888762 13.8498457 2.33892757 14.97288475 2.34927177 16.12995529 C2.38040007 19.89001689 2.39725651 23.65000538 2.4140625 27.41015625 C2.43290758 30.05874072 2.45250785 32.70730971 2.47302246 35.35588074 C2.52049999 41.72549538 2.55720899 48.09512757 2.58992171 54.46483344 C2.61639734 59.57851177 2.64704048 64.69214954 2.68060303 69.80578613 C2.68532981 70.52717801 2.6900566 71.24856989 2.69492662 71.99182212 C2.70447845 73.44898781 2.71403121 74.90615349 2.72358489 76.36331916 C2.8376996 93.90878059 2.92477238 111.45433241 3 129 C3.00499512 130.15713249 3.00999023 131.31426498 3.01513672 132.5064621 C3.06962496 145.32555517 3.11034129 158.14458091 3.12248993 170.96378708 C3.12499933 173.24938988 3.12895177 175.53498684 3.13311768 177.82058716 C3.13989867 181.94812163 3.13738742 186.0755874 3.1328125 190.203125 C3.13478638 191.38126266 3.13676025 192.55940033 3.13879395 193.77323914 C3.13569214 194.82936905 3.13259033 195.88549896 3.12939453 196.97363281 C3.12859894 197.88075012 3.12780334 198.78786743 3.12698364 199.72247314 C3 202 3 202 2 205 C1.34 205 0.68 205 0 205 C-0.20625 205.94875 -0.4125 206.8975 -0.625 207.875 C-2 211 -2 211 -4.625 212.375 C-9.90424663 213.35263827 -14.10181542 213.62056034 -19.25 211.9375 C-22.68656265 209.51628541 -24.55212413 206.89448876 -26 203 C-26.34552715 199.66164934 -26.11596102 196.46052113 -25.8125 193.125 C-25.75513672 192.25875 -25.69777344 191.3925 -25.63867188 190.5 C-25.17789122 184.17789122 -25.17789122 184.17789122 -24 183 C-23.7686396 180.81224692 -23.60352525 178.61745206 -23.46484375 176.421875 C-23.4215947 175.74746872 -23.37834564 175.07306244 -23.33378601 174.3782196 C-23.19501208 172.1691604 -23.0649183 169.95974218 -22.9375 167.75 C-22.893974 166.99969513 -22.850448 166.24939026 -22.80560303 165.47634888 C-20.07918884 137.14357182 -20.07918884 137.14357182 -27.5078125 110.31640625 C-29.74245657 105.34988055 -30.29036856 100.23861267 -31.0625 94.875 C-31.38633496 92.72650462 -31.71055281 90.57806691 -32.03515625 88.4296875 C-32.19161621 87.36290771 -32.34807617 86.29612793 -32.50927734 85.19702148 C-32.98973956 82.06684602 -33.54392463 78.95633863 -34.10546875 75.83984375 C-35.01538034 70.41860205 -35.31040804 65.17780335 -35.25 59.6875 C-35.24395752 58.78741211 -35.23791504 57.88732422 -35.23168945 56.95996094 C-35.06988268 45.9335645 -33.99811802 35.35876031 -30 25 C-29.34 25 -28.68 25 -28 25 C-27.90589844 24.11054688 -27.81179688 23.22109375 -27.71484375 22.3046875 C-25.7309655 13.13331591 -16.42990446 6.05444655 -9 1 C-5.75778445 -0.08073852 -3.39597063 -0.21676408 0 0 Z " fill="#EAEFF2" transform="translate(762,404)"/>
<path d="M0 0 C9.57 0 19.14 0 29 0 C29.12375 4.186875 29.2475 8.37375 29.375 12.6875 C29.72675366 23.97203542 30.2677777 35.23313042 30.92526245 46.50344849 C31.58558525 57.91424353 32.20976177 69.31787118 32.3125 80.75 C32.32998291 81.6766748 32.34746582 82.60334961 32.36547852 83.55810547 C32.3596189 90.52844032 31.59575025 97.40424975 26.5 102.5 C21.17006596 104.78425745 15.44064131 105.93727815 9.734375 104.3828125 C7.8125 103.5625 7.8125 103.5625 5 102 C5 101.34 5 100.68 5 100 C3.68 99.67 2.36 99.34 1 99 C1 98.01 1 97.02 1 96 C0.34 96 -0.32 96 -1 96 C-2.85992715 90.42021856 -2.19317691 84.22505448 -2.1875 78.375 C-2.1882251 77.62198608 -2.1889502 76.86897217 -2.18969727 76.09313965 C-2.18706757 50.71789902 -0.99000504 25.35120044 0 0 Z " fill="#D46B59" transform="translate(663,512)"/>
<path d="M0 0 C7.92 0 15.84 0 24 0 C24.02257745 9.46620492 24.04093046 18.93239201 24.05181217 28.39861774 C24.0570344 32.79399426 24.06412013 37.18935142 24.07543945 41.5847168 C24.08629171 45.82517373 24.09228182 50.06561203 24.09487724 54.30608177 C24.09672726 55.92522665 24.1003398 57.5443705 24.10573006 59.16350746 C24.11297148 61.42844485 24.11398962 63.69330489 24.11352539 65.95825195 C24.115746 67.24842728 24.11796661 68.5386026 24.12025452 69.86787415 C24 73 24 73 23 76 C22.34 76 21.68 76 21 76 C20.79375 76.94875 20.5875 77.8975 20.375 78.875 C19 82 19 82 16.375 83.375 C11.09575337 84.35263827 6.89818458 84.62056034 1.75 82.9375 C-1.68656265 80.51628541 -3.55212413 77.89448876 -5 74 C-5.34552715 70.66164934 -5.11596102 67.46052113 -4.8125 64.125 C-4.75513672 63.25875 -4.69777344 62.3925 -4.63867188 61.5 C-4.17789122 55.17789122 -4.17789122 55.17789122 -3 54 C-2.7809621 51.81190265 -2.62743087 49.61721301 -2.5 47.421875 C-2.45966644 46.74674362 -2.41933289 46.07161224 -2.3777771 45.37602234 C-2.2471837 43.16759296 -2.1234487 40.95883934 -2 38.75 C-1.9125559 37.24355447 -1.8248275 35.73712541 -1.73681641 34.23071289 C-1.07665109 22.82406194 -0.50731147 11.41450805 0 0 Z " fill="#F1D477" transform="translate(741,533)"/>
<path d="M0 0 C0.66 0 1.32 0 2 0 C2.33 324.06 2.66 648.12 3 982 C2.01 982 1.02 982 0 982 C0 657.94 0 333.88 0 0 Z " fill="#B4B4B4" transform="translate(0,0)"/>
<path d="M0 0 C89.1 0 178.2 0 270 0 C270 112.86 270 225.72 270 342 C180.9 342 91.8 342 0 342 C0 229.14 0 116.28 0 0 Z M1 2 C1 113.87 1 225.74 1 341 C89.11 341 177.22 341 268 341 C268 229.13 268 117.26 268 2 C179.89 2 91.78 2 1 2 Z " fill="#5693BD" transform="translate(575,339)"/>
<path d="M0 0 C0.8273465 -0.0033284 1.65469299 -0.0066568 2.5071106 -0.01008606 C4.25717615 -0.01514739 6.00725135 -0.01749463 7.75732422 -0.01733398 C10.42822272 -0.01951728 13.09870599 -0.0376724 15.76953125 -0.05664062 C17.47135276 -0.05957539 19.17317622 -0.06155963 20.875 -0.0625 C21.67098602 -0.06968552 22.46697205 -0.07687103 23.28707886 -0.08427429 C28.94327786 -0.06109408 32.65356072 0.77396745 37.3203125 4.16796875 C40.45760502 8.35102544 40.70630765 12.02565226 40.5703125 17.16796875 C39.75139625 21.26254998 37.692013 23.46683049 34.46170044 26.08734131 C30.7992384 28.17985597 26.87333465 27.87867233 22.75390625 27.83203125 C21.35278343 27.8392067 21.35278343 27.8392067 19.9233551 27.8465271 C17.95580351 27.84991842 15.98819498 27.84076989 14.02075195 27.81982422 C11.01320703 27.79301683 8.00938357 27.81961301 5.00195312 27.8515625 C3.08592929 27.84825886 1.16990776 27.84185356 -0.74609375 27.83203125 C-1.64203751 27.8421524 -2.53798126 27.85227356 -3.46107483 27.86270142 C-7.94257207 27.77873052 -9.82154361 27.65740558 -13.41772461 24.76318359 C-14.08167236 23.9067627 -14.74562012 23.0503418 -15.4296875 22.16796875 C-16.0484375 21.44609375 -16.6671875 20.72421875 -17.3046875 19.98046875 C-19.04062998 15.64061256 -18.56428104 11.65339522 -17.4296875 7.16796875 C-15.4921875 4.54296875 -15.4921875 4.54296875 -13.4296875 3.16796875 C-12.7696875 3.16796875 -12.1096875 3.16796875 -11.4296875 3.16796875 C-11.4296875 2.50796875 -11.4296875 1.84796875 -11.4296875 1.16796875 C-7.60285281 -0.10764281 -3.98812567 0.00554736 0 0 Z " fill="#415569" transform="translate(697.4296875,702.83203125)"/>
<path d="M0 0 C0.99832352 -0.00832352 0.99832352 -0.00832352 2.01681519 -0.01681519 C4.21189918 -0.02860405 6.40491464 -0.00434626 8.59985352 0.02148438 C10.12915452 0.023196 11.65845846 0.02312927 13.1877594 0.0213623 C16.39157213 0.02301516 19.59468482 0.04170344 22.79833984 0.07324219 C26.89861518 0.11288686 30.9979724 0.11729128 35.09840298 0.10977936 C38.25637679 0.10670471 41.41414541 0.11884819 44.57206917 0.13591003 C46.08348363 0.14292659 47.59492134 0.1460662 49.10635185 0.1452179 C51.22236738 0.14702235 53.33729792 0.16845793 55.453125 0.1953125 C56.65573471 0.20373169 57.85834442 0.21215088 59.09739685 0.2208252 C62.61470567 0.65517661 64.53099892 1.40799904 67.29125977 3.61523438 C67.91625977 7.05273438 67.91625977 7.05273438 67.29125977 10.61523438 C64.65266037 13.32988417 62.98728858 14.50299948 59.2247467 15.10971069 C57.50982277 15.10543564 57.50982277 15.10543564 55.76025391 15.10107422 C54.45862808 15.10722748 53.15700226 15.11338074 51.81593323 15.11972046 C50.40275364 15.10592176 48.98958106 15.09138757 47.57641602 15.07617188 C46.11820133 15.07378524 44.65998352 15.07288259 43.20176697 15.07339478 C40.14945141 15.0702716 37.09760715 15.05374646 34.04541016 15.02685547 C30.14380475 14.99290637 26.2427173 14.98522641 22.34098148 14.98674583 C19.33055223 14.98620043 16.32023494 14.97520547 13.30984306 14.96074295 C11.87181888 14.95440306 10.43378209 14.95044267 8.99574471 14.94895554 C6.98100314 14.94459098 4.96631012 14.92546341 2.95166016 14.90576172 C1.80758194 14.89813812 0.66350372 14.89051453 -0.51524353 14.88265991 C-3.85629779 14.60287781 -6.58421467 13.8025862 -9.70874023 12.61523438 C-11.16898792 6.40918171 -11.16898792 6.40918171 -9.1436615 2.91540527 C-5.96204374 -0.09013938 -4.33237686 -0.00740599 0 0 Z " fill="#405468" transform="translate(681.708740234375,304.384765625)"/>
<path d="M0 0 C0.76918825 0.16251975 1.5383765 0.3250395 2.33087349 0.49248409 C7.14225037 1.1579968 11.85474031 1.13430346 16.70602417 1.12025452 C17.78512499 1.12110894 18.86422581 1.12196337 19.97602665 1.12284368 C23.59194481 1.12449082 27.20781658 1.11898961 30.82373047 1.11352539 C33.41571552 1.11324333 36.00770066 1.11340163 38.59968567 1.1139679 C44.18009801 1.11449178 49.76049865 1.11135913 55.34090805 1.10573006 C63.40920337 1.09759671 71.47749303 1.09499795 79.545792 1.09374207 C92.636651 1.09155443 105.72750376 1.08490216 118.81835938 1.07543945 C131.53352833 1.06625788 144.24869559 1.05918069 156.96386719 1.05493164 C158.13987243 1.05453756 158.13987243 1.05453756 159.33963536 1.05413551 C163.27282228 1.05283045 167.20600921 1.05156675 171.13919616 1.05032361 C203.75946865 1.03995998 236.37973349 1.0223495 269 1 C269 1.66 269 2.32 269 3 C236.82916593 3.15047615 204.65831326 3.29558745 172.48742197 3.4332476 C168.68619455 3.44951788 164.88496733 3.46583372 161.08374023 3.48217773 C159.94864413 3.48705712 159.94864413 3.48705712 158.79061679 3.49203508 C146.5504327 3.54476 134.31026826 3.60117317 122.07010712 3.6589582 C109.50320169 3.71820334 96.93628326 3.77346446 84.36934406 3.82505554 C76.61982279 3.85699438 68.87032815 3.89201137 61.12083916 3.93101191 C55.1706257 3.96062376 49.22039777 3.98468272 43.27015114 4.00670624 C40.83496425 4.01658003 38.39978382 4.02823481 35.96461487 4.04183006 C32.63161639 4.06016757 29.29865365 4.07200729 25.96562195 4.08229065 C25.00936234 4.08909444 24.05310273 4.09589823 23.06786555 4.10290819 C16.66198677 4.11345188 10.36883541 3.68032385 4 3 C3.67 3.66 3.34 4.32 3 5 C1.5 3.625 1.5 3.625 0 2 C0 1.34 0 0.68 0 0 Z " fill="#D2A76A" transform="translate(573,750)"/>
<path d="M0 0 C0.75254059 0.16076523 1.50508118 0.32153046 2.28042603 0.48716736 C7.36550948 1.18826829 12.38538969 1.17804143 17.51318359 1.20532227 C18.66498108 1.21522186 19.81677856 1.22512146 21.003479 1.23532104 C24.80177776 1.26685 28.60008901 1.29165952 32.3984375 1.31640625 C35.03545452 1.3369832 37.67246829 1.35797987 40.30947876 1.37937927 C46.53538134 1.4291959 52.76130902 1.47417541 58.98726046 1.51740164 C66.07798358 1.56686858 73.16866158 1.62175149 80.259341 1.67708123 C94.83951791 1.79073182 109.41973974 1.89760739 124 2 C124 2.33 124 2.66 124 3 C109.97821002 3.15443637 95.95636417 3.30237756 81.93442822 3.4429636 C75.42280288 3.50843731 68.91121223 3.57594964 62.3996582 3.64819336 C56.11031135 3.71789555 49.82092984 3.78214804 43.53148842 3.84269524 C41.13743396 3.86668601 38.743398 3.89260774 36.34938622 3.92053413 C32.98449977 3.95944909 29.61961171 3.99136527 26.25463867 4.02172852 C25.27495621 4.03467453 24.29527374 4.04762054 23.28590393 4.06095886 C16.80167401 4.10992103 10.44593206 3.69886513 4 3 C3.67 3.66 3.34 4.32 3 5 C1.5 3.625 1.5 3.625 0 2 C0 1.34 0 0.68 0 0 Z " fill="#C99F64" transform="translate(573,750)"/>
<path d="M0 0 C9.57 0 19.14 0 29 0 C29.33 12.54 29.66 25.08 30 38 C27.95013699 33.90027397 27.66128619 31.04056108 27.5859375 26.609375 C27.56657135 25.90476135 27.5472052 25.20014771 27.5272522 24.47418213 C27.46767265 22.23290961 27.42115877 19.99158511 27.375 17.75 C27.33680021 16.22654062 27.29774731 14.70310238 27.2578125 13.1796875 C27.16038897 9.45323761 27.08065265 5.72700139 27 2 C18.42 2 9.84 2 1 2 C1 8.27 1 14.54 1 21 C0.67 21 0.34 21 0 21 C0 14.07 0 7.14 0 0 Z " fill="#CB8C89" transform="translate(663,512)"/>
<path d="M0 0 C2.59331564 2.59331564 2.28680001 3.76419859 2.37890625 7.375 C2.41306641 8.44234375 2.44722656 9.5096875 2.48242188 10.609375 C2.50884766 11.72828125 2.53527344 12.8471875 2.5625 14 C2.62229087 16.20844558 2.68589985 18.41679214 2.75390625 20.625 C2.77783447 21.60726563 2.8017627 22.58953125 2.82641602 23.6015625 C2.84766519 26.01323266 2.84766519 26.01323266 4 28 C4.15571176 30.23143657 4.25036309 32.46723735 4.31640625 34.703125 C4.33718735 35.37736511 4.35796844 36.05160522 4.37937927 36.74627686 C4.42269048 38.18202328 4.46372656 39.61783983 4.50268555 41.05371094 C4.56113977 43.20005475 4.6265731 45.34608865 4.69335938 47.4921875 C4.95763504 56.33103851 5.05498724 65.15665517 5 74 C4.67 74 4.34 74 4 74 C3.94465088 73.15703369 3.88930176 72.31406738 3.83227539 71.44555664 C3.6253495 68.32745699 3.41430883 65.2096715 3.20043945 62.09204102 C3.1086091 60.74091591 3.01843502 59.38967719 2.92993164 58.03833008 C2.80266594 56.09948332 2.66901017 54.16105931 2.53515625 52.22265625 C2.456604 51.05484619 2.37805176 49.88703613 2.29711914 48.68383789 C2.29229027 46.08395465 2.29229027 46.08395465 1 45 C0.87790076 43.58882298 0.82229128 42.17179541 0.79467773 40.75561523 C0.77473251 39.85475693 0.75478729 38.95389862 0.73423767 38.02574158 C0.71752518 37.04658279 0.70081268 36.06742401 0.68359375 35.05859375 C0.66281265 34.06118668 0.64203156 33.0637796 0.62062073 32.03614807 C0.55501363 28.83667157 0.49618866 25.63711018 0.4375 22.4375 C0.39432538 20.27407961 0.35071145 18.11066794 0.30664062 15.94726562 C0.19932097 10.63160126 0.09757573 5.31585166 0 0 Z " fill="#91C0E1" transform="translate(707,407)"/>
<path d="M0 0 C0.33 0 0.66 0 1 0 C1.9939048 4.98542647 2.19196346 9.75192577 2.1875 14.8125 C2.18741943 15.68745117 2.18733887 16.56240234 2.18725586 17.46386719 C2.11398353 26.5743172 1.60442981 35.65781275 1.0625 44.75 C1.01902435 45.49835114 0.97554871 46.24670227 0.93075562 47.01773071 C0.80478741 49.15286107 0.67151715 51.28738574 0.53515625 53.421875 C0.456604 54.66549805 0.37805176 55.90912109 0.29711914 57.19042969 C0 60 0 60 -1 61 C-1.22571184 62.41120902 -1.39388349 63.83176043 -1.53515625 65.25390625 C-1.62216797 66.10791016 -1.70917969 66.96191406 -1.79882812 67.84179688 C-1.88583984 68.73962891 -1.97285156 69.63746094 -2.0625 70.5625 C-2.19881836 71.91504883 -2.19881836 71.91504883 -2.33789062 73.29492188 C-2.56253923 75.52958434 -2.78305769 77.76457839 -3 80 C-3.33 80 -3.66 80 -4 80 C-4.28078818 61.56157635 -4.28078818 61.56157635 -2 57 C-0.55632695 44.97295585 -0.68296972 32.72014482 -0.4375 20.625 C-0.39419727 18.61718064 -0.35057975 16.60936804 -0.30664062 14.6015625 C-0.20080251 9.73444526 -0.09920808 4.86725671 0 0 Z " fill="#7CB0CA" transform="translate(739,527)"/>
<path d="M0 0 C3.79197449 0.13844847 7.5834859 0.28700744 11.375 0.4375 C12.45523438 0.47681641 13.53546875 0.51613281 14.6484375 0.55664062 C15.6796875 0.59853516 16.7109375 0.64042969 17.7734375 0.68359375 C18.72653809 0.72025146 19.67963867 0.75690918 20.66162109 0.79467773 C23 1 23 1 25 2 C32.54066753 3.22078892 40.17394269 3.13245158 47.7890625 3.09765625 C48.97349945 3.0962413 50.1579364 3.09482635 51.37826538 3.09336853 C55.12720361 3.08781209 58.8760801 3.07526782 62.625 3.0625 C65.18098872 3.05747937 67.73697838 3.05291745 70.29296875 3.04882812 C76.52866658 3.03785696 82.76432887 3.02116276 89 3 C89 3.33 89 3.66 89 4 C79.08076605 5.29696015 69.12265374 5.15195439 59.14038086 5.13037109 C56.20486236 5.12503158 53.26949811 5.13033025 50.33398438 5.13671875 C36.44617831 5.14296538 22.86376407 4.64967388 9.125 2.4375 C8.23425781 2.29892578 7.34351563 2.16035156 6.42578125 2.01757812 C4.28305103 1.68349653 2.14139481 1.342537 0 1 C0 0.67 0 0.34 0 0 Z " fill="#EDCA97" transform="translate(649,897)"/>
<path d="M0 0 C0.33 0 0.66 0 1 0 C1.61992218 12.30611469 2.11825649 24.61560706 2.25 36.9375 C2.27126953 37.91203125 2.29253906 38.8865625 2.31445312 39.890625 C2.34398317 45.99068759 1.70924494 51.45762078 -1 57 C-5.24295017 61.24295017 -9.67742004 61.61904768 -15.4140625 62.1171875 C-18.15180536 61.9931206 -19.67772966 61.40644542 -22 60 C-21.11957031 59.96261719 -20.23914063 59.92523437 -19.33203125 59.88671875 C-17.58986328 59.78810547 -17.58986328 59.78810547 -15.8125 59.6875 C-14.66394531 59.62949219 -13.51539063 59.57148437 -12.33203125 59.51171875 C-7.96660993 58.84129648 -5.24889474 57.3381015 -2.25 54.125 C-0.0343279 50.35835744 0.12510397 46.4135744 0.11352539 42.11791992 C0.11344986 41.17732224 0.11337433 40.23672455 0.11329651 39.2676239 C0.10813522 38.2653627 0.10297394 37.2631015 0.09765625 36.23046875 C0.0962413 35.19432938 0.09482635 34.15819 0.09336853 33.09065247 C0.08778242 29.78957196 0.07523242 26.48855992 0.0625 23.1875 C0.05748321 20.94596452 0.05292061 18.70442798 0.04882812 16.46289062 C0.03781753 10.97523716 0.02109318 5.48762347 0 0 Z " fill="#BA878E" transform="translate(693,555)"/>
<path d="M0 0 C0.66 0 1.32 0 2 0 C1.85980308 2.81288705 1.71312045 5.62516885 1.5625 8.4375 C1.50352539 9.64116211 1.50352539 9.64116211 1.44335938 10.86914062 C1.11328125 16.88671875 1.11328125 16.88671875 0 18 C-0.22571184 19.41120902 -0.39388349 20.83176043 -0.53515625 22.25390625 C-0.62216797 23.10791016 -0.70917969 23.96191406 -0.79882812 24.84179688 C-0.88583984 25.73962891 -0.97285156 26.63746094 -1.0625 27.5625 C-1.15337891 28.46419922 -1.24425781 29.36589844 -1.33789062 30.29492188 C-1.56253923 32.52958434 -1.78305769 34.76457839 -2 37 C-2.33 37 -2.66 37 -3 37 C-3.28078818 18.56157635 -3.28078818 18.56157635 -1 14 C-0.76970044 11.62876754 -0.58880058 9.25258057 -0.4375 6.875 C-0.35371094 5.59367188 -0.26992188 4.31234375 -0.18359375 2.9921875 C-0.09271484 1.51105469 -0.09271484 1.51105469 0 0 Z " fill="#9DBABA" transform="translate(738,570)"/>
<path d="M0 0 C0.33 0 0.66 0 1 0 C1 2.64 1 5.28 1 8 C0.34 8 -0.32 8 -1 8 C-1.33 17.57 -1.66 27.14 -2 37 C-2.33 37 -2.66 37 -3 37 C-3.02952761 33.70835283 -3.04697292 30.41674062 -3.0625 27.125 C-3.07087891 26.2071875 -3.07925781 25.289375 -3.08789062 24.34375 C-3.11710116 16.0479576 -3.08217331 7.80817239 0 0 Z " fill="#F4DFC0" transform="translate(330,457)"/>
<path d="M0 0 C0.33 0.66 0.66 1.32 1 2 C-0.9054475 6.12846958 -2.80395002 8.25164584 -7 10 C-17.31568409 11.85467723 -17.31568409 11.85467723 -22 9 C-21.11957031 8.96261719 -20.23914063 8.92523437 -19.33203125 8.88671875 C-17.58986328 8.78810547 -17.58986328 8.78810547 -15.8125 8.6875 C-14.08966797 8.60048828 -14.08966797 8.60048828 -12.33203125 8.51171875 C-7.43468354 7.75960556 -4.88830411 6.03235343 -1.6875 2.3125 C-1.130625 1.549375 -0.57375 0.78625 0 0 Z " fill="#8F96AF" transform="translate(693,606)"/>
<path d="M0 0 C2.05078125 0.03255208 4.1015625 0.06510417 6.15234375 0.09765625 C6.15234375 0.42765625 6.15234375 0.75765625 6.15234375 1.09765625 C-4.05765297 4.65928301 -15.15751943 4.27100982 -25.84765625 4.09765625 C-25.84765625 3.76765625 -25.84765625 3.43765625 -25.84765625 3.09765625 C-24.81040405 3.01463257 -24.81040405 3.01463257 -23.75219727 2.92993164 C-20.63778411 2.67802094 -17.5239853 2.41918274 -14.41015625 2.16015625 C-13.32154297 2.07314453 -12.23292969 1.98613281 -11.11132812 1.89648438 C-9.55961914 1.7659668 -9.55961914 1.7659668 -7.9765625 1.6328125 C-7.0182251 1.55426025 -6.0598877 1.47570801 -5.07250977 1.39477539 C-2.67896674 1.07512853 -2.30742445 0.12195689 0 0 Z " fill="#F4E1C5" transform="translate(763.84765625,896.90234375)"/>
<path d="M0 0 C0.96679674 3.07648688 0.98422695 5.15464955 0.29296875 8.29296875 C0.11830078 9.08767578 -0.05636719 9.88238281 -0.23632812 10.70117188 C-0.42646484 11.52166016 -0.61660156 12.34214844 -0.8125 13.1875 C-0.99103516 14.01958984 -1.16957031 14.85167969 -1.35351562 15.70898438 C-2.3886022 20.29400686 -2.3886022 20.29400686 -3 22 C-3.66 22.33 -4.32 22.66 -5 23 C-4.03137596 14.9889094 -2.86750338 7.55978164 0 0 Z " fill="#EBC68E" transform="translate(339,417)"/>
<path d="M0 0 C0.66 0.33 1.32 0.66 2 1 C0.40207236 2.65189143 -1.20355876 4.2963339 -2.8125 5.9375 C-3.70582031 6.85402344 -4.59914063 7.77054687 -5.51953125 8.71484375 C-8 11 -8 11 -11 12 C-9.49650623 8.33213607 -7.36271208 6.31089607 -4.375 3.75 C-3.14910156 2.69039063 -3.14910156 2.69039063 -1.8984375 1.609375 C-1.27195312 1.07828125 -0.64546875 0.5471875 0 0 Z " fill="#C4DBEB" transform="translate(751,406)"/>
<path d="M0 0 C3.65251008 5.47876512 4.2189011 8.43296699 4 15 C3.67 15 3.34 15 3 15 C2.49363393 13.25183142 1.99515381 11.50137737 1.5 9.75 C1.2215625 8.77546875 0.943125 7.8009375 0.65625 6.796875 C0 4 0 4 0 0 Z " fill="#EECFA0" transform="translate(1080,417)"/>
<path d="M0 0 C0 0.33 0 0.66 0 1 C-4.873261 2.5912689 -8.80790596 3.21192221 -14 3 C-14 2.67 -14 2.34 -14 2 C-9.07262981 0.02905192 -5.21979128 -0.1799928 0 0 Z " fill="#F6E6CF" transform="translate(770,897)"/>
</svg>
